<svg width="176" height="40" viewBox="0 0 176 40" xmlns="http://www.w3.org/2000/svg">
    <path d="M11.998 36.04v-6.214H5.284c-.205 0-.315-.18-.33-.544-.015-.363.095-.545.33-.545h6.714V23.25h-5.48c-.098.17-.426.755-.984 1.75-.558.997-1.236 2.093-2.035 3.29-.8 1.195-1.335 1.978-1.61 2.348l-.72.96c-.166.228-.28.3-.344.214-.064-.086-.098-.175-.103-.267-.005-.093.032-.224.11-.395l.485-1.003c.656-1.353 1.342-2.975 2.057-4.868.715-1.894 1.332-3.81 1.85-5.745l.368-1.387.264-1.324c.02-.028.04-.04.06-.032.02.007.07.043.153.107.084.063.145.11.184.137l2.586 2.007c.127.114.193.242.198.385.005.14-.08.248-.257.32l-.704.32-.926 2.006h4.848V19.45l-.132-3.5c.06-.087.117-.15.176-.194l.617.235 2.717.962c.118.043.186.093.206.15.02.056.027.12.022.192-.005.07-.08.192-.228.363l-.69.832v3.586h5.538l.97-1.772c.244-.455.4-.662.47-.62.068.044.156.122.264.236l1.894 2.242c.147.185.255.352.323.5.07.15.106.286.11.407.006.12-.085.18-.27.18h-9.3v5.487h4.686l.94-1.814c.147-.285.247-.434.3-.45.055-.013.156.065.302.236l1.998 2.454c.147.185.213.342.2.47-.016.128-.082.192-.2.192h-8.226v6.213h7.668l1.117-2.03c.156-.298.274-.455.352-.47.08-.013.21.087.397.3l1.984 2.35c.265.326.394.575.39.746-.005.17-.096.256-.272.256H.378c-.226 0-.35-.192-.375-.576-.024-.385.1-.577.375-.577h11.62zm7.625-20.753H6.518v.448c0 .114-.1.3-.3.555-.202.256-.61.42-1.227.49-.616.072-.964.016-1.042-.17-.08-.185-.123-.39-.133-.62l.118-3.223V5.594l-.147-3.886c.05-.057.09-.092.125-.107.035-.013.194.08.478.28l2.22 1.643h12.97l.618-1.24c.244-.497.39-.76.433-.788.043-.03.148.042.315.213l2.145 2.22c.02.043.046.104.08.182.035.078.054.153.06.224.004.07-.042.157-.14.256l-.735.79v6.768l.088 3.46c-.04.27-.105.508-.198.714-.093.207-.333.388-.72.545-.387.156-.77.238-1.153.245-.382.007-.602-.07-.66-.235-.06-.163-.09-.345-.09-.544v-1.046zm0-10.633H6.518v3.97h13.105v-3.97zm0 5.06H6.518v4.463h13.105V9.714zm30.38.982h3.32l.808-1.644c.207-.427.374-.644.5-.65.128-.008.334.174.618.544l1.396 1.88c.235.326.352.568.352.724-.01.2-.088.3-.235.3h-3.025l1.058.683c.244.17.382.302.41.395.03.092.047.167.052.224.005.057-.04.135-.14.235l-.646.683c-.07.94-.133 1.786-.192 2.54-.058.755-.166 1.854-.323 3.3-.157 1.444-.34 2.796-.55 4.056-.21 1.26-.596 2.814-1.154 4.665 1 2.008 2.352 3.68 4.056 5.018l.72.576c.127.114.19.22.19.32-.01.186-.102.314-.28.385l-.513.212c-.46.2-.803.43-1.028.694-.225.264-.446.588-.66.972-.217.384-.364.57-.442.555-.166 0-.446-.28-.837-.843-.392-.563-.762-1.185-1.11-1.87-.347-.682-.82-1.692-1.417-3.03-1.676 2.52-3.302 4.476-4.88 5.87l-.91.812c-.293.27-.474.4-.543.385-.05 0-.098-.018-.147-.054-.05-.035-.076-.103-.08-.203-.006-.1.046-.234.154-.405l.367-.45.765-.96c.215-.27.54-.718.97-1.344.43-.626.905-1.362 1.424-2.21.52-.846 1.165-2.188 1.94-4.024-.383-1.466-.64-2.62-.773-3.458-.132-.84-.25-1.758-.352-2.755-.103-.996-.19-1.907-.257-2.732-.07-.825-.157-2.327-.265-4.504-.41 1.067-.72 1.793-.925 2.177-.206.385-.372.57-.5.556-.04 0-.07-.01-.095-.023-.025-.014-.044-.07-.06-.17-.014-.1.062-.463.23-1.09l.234-.918c.137-.54.21-.833.22-.876l.147-.79H42.54l.456.406c.108.1.176.18.205.245.03.064.048.157.053.278.005.12-.11.238-.345.352l-.573.3c-.823 1.138-1.655 2.24-2.498 3.308.9.257 1.842.45 2.82.577.45-.64.824-1.253 1.117-1.836l.515-1.047c.067-.142.11-.22.13-.234.02-.015.153.092.397.32l1.367 1.302c.156.157.262.285.316.385.053.1.083.192.088.277.005.086-.062.15-.2.192l-.94.298c-1.8 2.064-3.603 3.836-5.405 5.316.274.015 2.125 0 5.553-.042-.225-.783-.455-1.367-.69-1.75l-.324-.513c-.078-.1-.115-.204-.11-.31.005-.108.1-.19.287-.247.126-.028.508.136 1.145.49.636.357 1.153.802 1.55 1.336.396.533.594 1.106.594 1.718-.01.398-.113.818-.31 1.26-.195.44-.5.654-.91.64-.284 0-.514-.125-.69-.374-.177-.25-.314-.694-.412-1.334l-1.954.384V36.23c0 .457-.178.877-.536 1.26-.357.385-.778.642-1.263.77-.485.128-.77.185-.86.17-.117-.014-.2-.074-.25-.18-.048-.108-.088-.34-.117-.695-.03-.356-.142-.715-.338-1.078-.196-.363-.406-.623-.632-.78l-.602-.384c-.088-.042-.152-.11-.19-.203-.04-.092-.062-.22-.067-.384-.006-.164.12-.217.374-.16l.925.214c1.086.256 1.63.1 1.63-.47v-7.814l-1.587.363-2.16.767c-.048-.014-.117-.15-.205-.405l-.705-1.986c-.07-.17-.1-.278-.096-.32.005-.043.027-.08.067-.107.04-.03.124-.047.257-.054.133-.008.307-.068.522-.182l.47-.192c.196-.085.507-.306.933-.662.426-.356.813-.7 1.16-1.035.348-.335.816-.894 1.404-1.676l-1.867.298-1.88.533c-.07-.07-.118-.184-.147-.34l-.47-2.114-.015-.02c-.01 0-.004-.023.015-.065.02-.028.042-.05.067-.063.024-.015.137-.04.337-.075.2-.036.41-.125.63-.267.222-.142.57-.722 1.044-1.74.475-1.018.757-1.712.845-2.082l.146-.62h-3.13l-.16-.042c-.1-.04-.175-.09-.23-.148-.052-.057-.094-.238-.123-.544-.03-.306.112-.46.426-.46h7.638l.41-.683c.226-.37.36-.558.398-.565.04-.008.215.167.53.523l1.306 1.494c.167-.797.355-1.79.566-2.978.21-1.19.357-2.08.44-2.67.084-.59.19-1.48.324-2.67.132-1.187.218-2.06.257-2.614l.116-1.858c.01-.213.133-.263.368-.15l2.306 1.218c.274.156.45.277.53.363.077.084.114.173.11.266-.006.092-.116.245-.33.46l-.663.66c-.705 2.975-1.273 5.19-1.704 6.64zm2.116 1.153h-2.484c-.245.754-.475 1.515-.69 2.284.04.797.095 1.612.17 2.444.072.833.26 2.08.564 3.737.304 1.658.578 2.907.823 3.747l.396 1.452c.117-.64.217-1.21.3-1.708.084-.5.255-1.85.515-4.057.26-2.207.394-4.442.404-6.705V11.85zm-7.023-1.516h-5.054l-.206.576c-.088.256-.174.395-.257.416-.083.022-.223-.067-.42-.267L38.03 9.99c-.147-.128-.215-.224-.205-.288.01-.064.083-.175.22-.33.137-.158.206-.357.206-.6V5.21l-.102-2.82c.098-.113.22-.14.367-.084l1.895.768c.118.057.2.118.25.182.05.064.076.117.08.16.006.043-.016.12-.065.235-.05.115-.118.222-.206.32l-.486.556V9.16h1.748V3.714L41.644.747c.07-.085.123-.13.162-.14.04-.006.122.012.25.055l1.748.598c.245.1.4.185.47.256.068.07.1.156.095.256-.006.1-.09.25-.258.448l-.573.705V9.16h1.557V5.977l-.09-2.968c.04-.057.075-.092.104-.106.03-.015.153.02.37.106l1.66.705c.224.1.366.178.425.235.058.057.093.103.102.14.01.034.018.084.023.148.004.064-.067.19-.213.374l-.56.683v2.71l.104 2.862c-.136.584-.577.86-1.32.833-.403 0-.603-.142-.603-.427v-.94zM35.9 15.48l.323.255c.118.1.19.178.22.235.03.057.047.128.052.213.005.086-.086.25-.272.492l-.53.704v17.27l.12 3.844c-.158.385-.376.627-.655.726-.28.1-.568.153-.867.16-.297.008-.486-.04-.564-.138-.078-.1-.137-.25-.176-.45l.117-3.48v-15.84c-.627.91-1.12 1.64-1.476 2.188-.357.548-.604.914-.74 1.1l-.692.917c-.245.328-.404.527-.477.598-.073.07-.148.1-.227.086-.068 0-.11-.017-.125-.053-.014-.035-.022-.078-.022-.128v-.16c0-.058.035-.158.103-.3l.484-.875.617-1.26c.402-.825.77-1.6 1.103-2.327.333-.726.842-2.025 1.528-3.897.686-1.87 1.186-3.383 1.5-4.535l.425-1.602c.04-.142.076-.217.11-.224.035-.008.164.08.39.266l1.953 1.687c.167.156.272.274.316.352.044.078.07.167.074.267.005.1-.135.213-.42.34l-.513.236c-.52 1.153-1.077 2.263-1.675 3.33zm8.682 14.218c-.088-.1-.13-.206-.124-.32.004-.114.12-.2.345-.256.068-.015.335.057.8.213.466.157.88.353 1.242.587.362.235.62.56.77.972.153.413.23.74.236.982.006.242-.03.523-.11.843-.077.32-.23.56-.454.725-.226.164-.412.24-.56.224-.45 0-.733-.168-.85-.502-.118-.335-.216-.723-.295-1.164-.077-.44-.182-.826-.314-1.153-.133-.326-.267-.597-.404-.81l-.28-.342zm-7.99-25.64c-1.167 1.877-1.926 3.06-2.28 3.543l-1.335 1.71c-.696.88-1.083 1.372-1.16 1.472l-.72.833c-.275.327-.45.52-.522.576-.074.058-.145.08-.213.065-.128 0-.194-.046-.2-.14-.004-.09 0-.145.01-.16 0-.084.043-.205.13-.362l.31-.534.66-1.24c.92-1.72 1.63-3.273 2.123-4.653.495-1.38.82-2.335.977-2.86l.323-1.133c.04-.142.09-.21.147-.203.06.01.19.098.397.268l1.806 1.56c.206.184.338.326.397.426.058.1.09.21.095.33.005.122-.14.232-.433.332l-.514.17zm4.2 26.13c-1.586 2.42-2.566 3.88-2.938 4.378l-.632.833c-.352.454-.587.678-.705.67-.117-.006-.18-.024-.184-.052-.004-.03-.002-.07.008-.128v-.064c0-.057.113-.342.34-.854l.513-1.153c.215-.5.497-1.243.845-2.232.347-.99.6-1.854.756-2.594l.19-.94c.02-.114.043-.178.067-.192.026-.014.156.05.39.192l1.47.94c.284.2.443.327.477.384.034.057.054.142.06.256.004.114-.082.22-.258.32l-.398.235zm45.366-17.655v.02h-4.055l1.748.855c.168.085.275.174.324.267.05.092.076.178.08.256.006.08-.06.197-.197.353l-.66.748c-.315 2.25-.55 3.865-.707 4.847-.156.982-.423 2.306-.8 3.97-.377 1.667-.688 2.862-.933 3.588l-.588 1.815c.293.44.663.957 1.108 1.548.446.59 1.2 1.316 2.263 2.177 1.064.862 2.03 1.463 2.902 1.805l.47.192c.265.114.4.252.404.416.005.164-.085.28-.27.352l-.457.17c-.246.1-.537.257-.875.47-.338.214-.624.463-.86.748-.234.285-.418.605-.55.96-.132.357-.252.527-.36.513-.196 0-.9-.732-2.108-2.198-1.21-1.466-2.216-2.975-3.02-4.526-1.047 1.51-2.125 2.857-3.23 4.046-1.108 1.188-2.48 2.252-4.115 3.192l-.44.256c-.196.114-.33.167-.404.16-.074-.007-.12-.03-.14-.064-.02-.036-.032-.096-.037-.182-.004-.085.058-.185.185-.298l.66-.577c1.588-1.382 2.675-2.513 3.262-3.396.588-.882 1.163-1.82 1.727-2.818.563-.996 1.04-1.928 1.432-2.797-.235-.87-.44-1.67-.617-2.403-.177-.733-.332-1.526-.464-2.38-.132-.854-.27-1.986-.41-3.395-.143-1.41-.22-2.363-.23-2.86l-.146-4.036c-.313.783-.543 1.366-.69 1.75l-.838 2.178c-.293.74-.573 1.395-.837 1.965l-.426.917c-.11.242-.217.356-.324.34-.04 0-.074-.013-.103-.04-.03-.03-.047-.094-.052-.194-.003-.1.02-.234.068-.405l.293-1.11.398-1.43c.245-.898.556-2.275.933-4.132.378-1.858.7-3.822.97-5.893.27-2.07.44-3.604.507-4.6l.09-1.495.057-.918.03-.705c.03-.043.058-.07.088-.085.03-.015.19.05.485.192l2.76 1.43c.188.1.308.19.36.267.055.077.085.17.09.277.004.107-.116.26-.36.46l-.75.618c-.607 2.747-1.02 4.558-1.24 5.434-.22.874-.425 1.618-.61 2.23h5.758l1.043-2.07c.147-.3.262-.453.345-.46.084-.007.307.21.67.65l1.57 1.944c.158.213.263.373.317.48.054.107.083.192.088.256.005.064-.042.14-.14.224-.098.086-.245.13-.44.13zm-5.304.02h-4.216c-.01.214-.012.606-.007 1.175.005.57.12 1.854.346 3.854.225 2 .52 3.66.89 4.985.366 1.324.75 2.598 1.152 3.822l.264-1.24c.08-.37.223-1.16.434-2.37.21-1.21.372-2.184.484-2.924.113-.74.238-1.77.375-3.085.137-1.316.215-2.302.235-2.956l.044-1.26zM66.15 10.59V4.676L65.97 1.26c.098-.128.177-.196.235-.203.06-.007.182.018.368.075l2.19.704c.253.086.395.178.425.278.03.1.03.2.007.3-.025.098-.09.198-.198.297l-.604.6v7.28h.294c.725-2.25 1.278-4.32 1.66-6.213l.176-.876c.05-.283.108-.43.177-.436.068-.007.245.096.53.31l1.835 1.515c.088.085.162.18.22.287.06.107.088.175.088.203-.01.057-.048.132-.117.224-.07.093-.148.153-.236.182l-.69.3c-.716 1.138-1.64 2.64-2.777 4.504h1.69l.822-1.687c.165-.342.285-.51.36-.502.072.008.24.19.506.546l1.322 1.836c.215.313.338.562.367.747.03.184-.166.277-.587.277h-5.642v1.814c.53.044 1.087.137 1.675.28.59.14 1.17.337 1.75.586.577.25.988.68 1.233 1.292.245.612.368 1.09.368 1.43-.01.185-.05.46-.124.822-.074.363-.226.634-.456.812-.23.178-.423.26-.58.245-.313 0-.56-.124-.742-.374-.18-.25-.41-.697-.683-1.345-.274-.647-.548-1.17-.823-1.57-.274-.397-.813-.93-1.616-1.6v2.39l.118 1.965c-.137.698-.583 1.047-1.337 1.047-.44.014-.732-.06-.874-.225-.142-.163-.233-.366-.272-.608l.12-1.943v-1.922L64.2 17.464c-.974 1.282-2.07 2.563-3.283 3.844l-.545.576c-.127.142-.22.206-.28.192-.058-.014-.097-.035-.117-.064-.02-.028-.034-.082-.044-.16-.01-.078.04-.203.147-.374l.515-.81c1.146-1.81 2.028-3.406 2.645-4.794.617-1.388 1.195-2.75 1.733-4.09H59.89l-.308-.19c-.07-.115-.115-.31-.14-.588-.024-.278.12-.416.434-.416h6.273zm-2.323 14.432h-3.57c-.235 0-.372-.192-.41-.576-.04-.384.097-.576.41-.576h3.864c.05-.2.13-.48.244-.844.112-.363.21-.697.293-1.003.084-.306.17-.744.258-1.313l.117-.748.103-.704c.05-.043.225.028.53.213l2.07 1.325c.216.142.34.25.375.32.034.072.05.157.044.257-.005.1-.145.227-.42.384l-.63.384-.56 1.73h3.483l.72-1.43c.147-.3.25-.46.308-.48.06-.023.167.052.324.223l1.76 2.007c.207.242.322.395.347.46.024.063.04.145.044.244.006.1-.05.185-.168.257l-.94.662c-.872 2.35-1.64 4.285-2.307 5.808.578.356 1.073.683 1.484.982.41.3.77.73 1.08 1.29.307.564.434 1.25.38 2.062-.053.81-.325 1.235-.815 1.27-.49.036-.87-.06-1.146-.288-.275-.228-.534-.52-.78-.875L69.25 34.44l-.587-.662c-1.077 1.395-2.105 2.477-3.084 3.245-.98.77-2.13 1.54-3.453 2.307l-.514.3c-.148.084-.263.124-.346.116-.083-.007-.14-.032-.17-.074-.028-.044-.048-.094-.058-.15-.01-.058.064-.164.22-.32l.412-.407c.068-.07.632-.573 1.69-1.505 1.057-.932 2.296-2.487 3.716-4.665-.774-.47-1.34-.79-1.697-.96-.357-.17-1-.42-1.932-.748l-.75-.256c-.4-.13-.604-.23-.608-.3-.005-.07-.005-.12 0-.15.004-.028.11-.348.315-.96l1.425-4.228zm6.024 0H66.18l-1.587 5.103c1.137.17 2.27.392 3.395.662.764-2.05 1.386-3.97 1.866-5.765zm-8.93-20.86c-.01-.013-.02-.088-.023-.223-.005-.136.04-.21.14-.225.038 0 .202.068.49.203.29.135.888.562 1.794 1.28.907.72 1.364 1.445 1.374 2.18.01.732-.03 1.304-.117 1.717-.088.413-.27.7-.544.865-.274.164-.5.238-.676.224-.675-.028-1.087-.584-1.234-1.665l-.088-1.282c-.04-.442-.13-.883-.272-1.324-.142-.44-.355-.91-.64-1.41l-.204-.34zm46.45 10.997H95.517c-.226 0-.346-.19-.36-.567-.015-.377.105-.566.36-.566h11.987l.66-.982c.276-.4.45-.594.523-.587.073.007.272.203.595.587l1.75 2.114c.166.212.283.387.352.522.068.135.105.25.11.34.005.094-.198.21-.61.354l-.955.363c-1.38 1.052-2.757 2.12-4.128 3.2.136.172.198.318.183.44-.015.12-.12.273-.316.458l-.676.64v2.54h6.832l1.014-1.792c.314-.556.54-.837.683-.844.14-.007.423.246.844.758l1.454 1.794c.353.44.524.754.515.94-.01.084-.042.16-.096.223-.054.064-.115.096-.184.096H104.99v11.914c0 .81-.366 1.44-1.1 1.89-.735.448-1.386.693-1.955.736l-.528.02c-.08.015-.133.012-.162-.01-.03-.02-.06-.096-.088-.224l-.19-.833c-.285-1.182-.824-1.957-1.617-2.328l-.793-.364c-.147-.056-.245-.128-.294-.213-.05-.085-.076-.203-.08-.352-.006-.15.12-.216.374-.202l1.307.128c1.37.142 2.13.093 2.277-.15.148-.24.222-.526.222-.853v-9.16h-11.62c-.1-.042-.175-.103-.23-.18-.053-.08-.077-.265-.072-.556.005-.292.125-.438.36-.438h11.562v-1.624l-.133-3.736c.078-.114.144-.178.198-.192.054-.014.242.05.565.192l2.057.94 1.08-1.847c.387-.662.663-1.21.83-1.644.166-.435.303-.752.41-.95zm4.51-6.748H95.046c.07 1.096.103 1.715.103 1.857-.01.583-.078 1.15-.205 1.697-.128.548-.377 1.135-.75 1.76-.372.627-.87.94-1.498.94-.54.015-.938-.22-1.197-.704-.26-.484-.392-.982-.397-1.494-.004-.514.082-.962.258-1.347.078-.17.206-.377.382-.62l.735-.98c.646-.954 1.018-1.958 1.116-3.01l.09-1.047c.02-.3.078-.456.176-.47.097-.014.205.092.323.32.165.385.39 1.025.675 1.922h16.91l.6-.897c.246-.37.425-.558.537-.565.113-.007.385.24.816.737l2.027 2.412c.245.3.41.545.5.737.088.193.137.382.146.567.01.185-.146.363-.47.534-.136.072-.57.11-1.3.118-.73.007-1.7.665-2.915 1.975l-.514.555c-.234.256-.39.377-.47.363-.02 0-.043-.01-.073-.03-.03-.022-.05-.083-.066-.183-.014-.1.033-.334.14-.704l.368-1.303c.313-1.11.578-2.156.793-3.138zM101.055.726c-.098-.128-.144-.263-.14-.406.005-.142.13-.235.375-.277.097 0 .494.135 1.19.405.694.27 1.4.808 2.115 1.612.715.804 1.052 1.74 1.013 2.808-.02.455-.166.96-.44 1.516-.275.555-.696.832-1.264.832-.343.015-.64-.106-.896-.363-.255-.256-.43-.505-.53-.747-.097-.242-.156-.445-.175-.608-.02-.164-.044-.595-.074-1.292-.03-.697-.113-1.267-.25-1.708-.138-.44-.32-.847-.544-1.217l-.382-.554zm32.13 26.752v-6.683h-6.245l-1.073 1.43c-.118.157-.216.157-.294 0l-1.528-2.583c-.166-.27-.252-.43-.257-.48-.005-.05.198-.182.61-.395.235-.114.445-.335.632-.662.186-.327.575-1.228 1.167-2.7.593-1.474 1.043-2.61 1.352-3.406.308-.798.672-1.81 1.093-3.033h-6.92c-.244 0-.374-.192-.388-.576-.015-.384.115-.576.39-.576h7.33c.03-.1.264-.854.705-2.263.44-1.408.76-2.49.955-3.244l.323-1.28.176-.983c.01-.015.03-.03.06-.043l.528.384 2.923 1.922c.108.085.16.203.155.352-.005.15-.096.28-.272.395l-1 .662-1.6 4.1h9.21l1.117-2.093c.255-.484.412-.74.47-.77.06-.027.206.087.44.343l2.308 2.71c.176.23.26.443.25.642-.01.2-.1.3-.265.3h-1.072v.02h-12.914l-4.26 10.675h5.89v-4.44l-.087-3.652c.06-.085.117-.142.176-.17l.34.15 2.908 1.26c.196.098.286.234.272.404-.015.17-.106.32-.272.45l-.676.51v5.488H140l1.028-2.05c.274-.555.475-.793.602-.715.128.08.314.267.558.566l1.88 2.35c.167.226.253.443.258.65.005.206-.08.31-.257.31l-8.228.042v6.683h6.978l1.25-2.263c.175-.328.295-.495.36-.502.062-.007.153.053.27.18l2.13 2.713c.118.156.202.302.25.438.05.135.076.263.08.384.006.12-.084.18-.27.18h-3.468v.044h-7.58v6.426l.103 3.63c-.03.185-.07.342-.118.47-.05.128-.218.295-.507.5-.288.208-.678.315-1.167.322-.49.007-.786-.1-.89-.32-.102-.22-.158-.51-.168-.865l.088-3.587v-6.576H120.68l-.146-.064c-.098-.043-.147-.078-.147-.107l-.06-.234c0-.512.12-.768.354-.768h12.503zm32.613-14.198l.543-.833c.216-.327.34-.51.375-.544.034-.036.083-.057.147-.064.063-.008.237.123.52.394l1.206 1.174c.264.27.426.455.485.555.058.1.085.206.08.32-.004.114-.09.285-.257.513l-.602.832v10.868l.118 4.163c-.03.184-.074.362-.133.533-.06.17-.258.348-.596.533-.337.185-.722.264-1.153.235-.41-.013-.616-.198-.616-.554v-2.092h-5.2v2.306c0 .427-.19.715-.573.864-.38.15-.734.228-1.057.235-.323.006-.522-.047-.595-.16-.074-.115-.13-.286-.17-.513l.12-4.89v-11.08l-.12-4.164c.08-.128.138-.2.177-.213.04-.014.22.078.544.277l2.056 1.303h4.7zm-5.083 8.156v6.704h5.2v-6.704h-5.2zm5.2-1.175v-5.827h-5.2v5.828h5.2zm-3.437-15.05c0-.17.022-.3.066-.385.044-.085.134-.128.27-.128h9.433l.676-1.09c.284-.454.46-.686.53-.693.067-.007.307.19.718.587l1.205 1.197c.304.313.485.516.544.61.057.09.084.18.08.265-.005.086-.135.314-.39.684l-.632.896v29.25c0 .285-.03.555-.095.81-.064.258-.343.592-.837 1.005-.495.413-1.28.633-2.358.662-.108.013-.19.002-.243-.033-.054-.036-.095-.096-.125-.182-.03-.085-.058-.263-.088-.533-.03-.27-.14-.687-.33-1.25-.19-.562-.595-1.02-1.212-1.377l-.985-.555c-.068-.028-.13-.09-.183-.18-.054-.094-.083-.183-.088-.268-.005-.085.024-.164.088-.235.063-.07.15-.1.257-.085l1.424.235c.294.057.705.08 1.234.074.53-.006.828-.08.896-.223.07-.142.108-.377.118-.704l.014-27.692h-9.652c-.205 0-.318-.22-.337-.66zm-6.95-3.78c-.03-.042-.046-.13-.05-.266-.006-.136.1-.217.315-.246.04 0 .098.018.176.053.08.037.3.115.662.236.362.12 1.035.477 2.02 1.068.984.59 1.478 1.366 1.483 2.327.005.962-.066 1.634-.213 2.02-.137.354-.338.668-.602.938-.264.27-.558.4-.88.384-.658 0-1.042-.263-1.155-.79-.112-.526-.205-1.16-.28-1.9-.072-.74-.202-1.352-.388-1.836s-.42-.954-.705-1.41l-.382-.576zm-.63 8.54l.014 27.05c0 .642-.058 1.147-.176 1.517-.117.37-.65.54-1.6.513-.295 0-.488-.06-.58-.182-.094-.12-.165-.33-.214-.63l.117-4.312-.014-22.162-.088-4.697c.058-.057.102-.09.132-.096.03-.006.16.04.396.14l2.483 1.067c.588.256.67.605.25 1.046l-.72.748z" fill="#FFF" fill-rule="evenodd"/>
</svg>