<svg width="317" height="96" viewBox="0 0 317 96" xmlns="http://www.w3.org/2000/svg">
  <defs>
    <path id="a" d="M0 0h317v96H0z"/>
    <linearGradient x1="11.661%" y1="17.891%" x2="88.339%" y2="82.109%" id="b">
      <stop stop-color="#FFF" offset="0%"/>
      <stop stop-color="#E7E8E6" offset="10%"/>
      <stop stop-color="#CDD0D0" offset="10%"/>
      <stop stop-color="#B5BBBD" offset="20%"/>
      <stop stop-color="#A5ACAF" offset="20%"/>
      <stop stop-color="#9BA3A7" offset="30%"/>
      <stop stop-color="#98A0A4" offset="30%"/>
      <stop stop-color="#828A8F" offset="40%"/>
      <stop stop-color="#667075" offset="50%"/>
      <stop stop-color="#535C63" offset="60%"/>
      <stop stop-color="#475158" offset="70%"/>
      <stop stop-color="#434D54" offset="80%"/>
      <stop stop-color="#475157" offset="100%"/>
    </linearGradient>
    <linearGradient x1="11.735%" y1="17.857%" x2="88.265%" y2="82.143%" id="c">
      <stop stop-color="#0B1F2A" offset="0%"/>
      <stop stop-color="#333F47" offset="20%"/>
      <stop stop-color="#777F84" offset="50%"/>
      <stop stop-color="#81898D" offset="50%"/>
      <stop stop-color="#B3B8B8" offset="70%"/>
      <stop stop-color="#D2D5D3" offset="80%"/>
      <stop stop-color="#DEE0DD" offset="80%"/>
      <stop stop-color="#FBFBFB" offset="100%"/>
    </linearGradient>
    <linearGradient x1="67.145%" y1="97.042%" x2="32.926%" y2="2.98%" id="d">
      <stop stop-color="#E1E3E1" offset="0%"/>
      <stop stop-color="#C1C5C4" offset="10%"/>
      <stop stop-color="#9BA1A2" offset="30%"/>
      <stop stop-color="#7D8487" offset="50%"/>
      <stop stop-color="#687074" stop-opacity="0" offset="70%"/>
      <stop stop-color="#5B6469" stop-opacity="0" offset="80%"/>
      <stop stop-color="#576065" stop-opacity="0" offset="100%"/>
    </linearGradient>
    <linearGradient x1="25%" y1="6.703%" x2="75%" y2="93.297%" id="e">
      <stop stop-color="#E1E3E1" offset="0%"/>
      <stop stop-color="#C1C5C4" offset="10%"/>
      <stop stop-color="#9BA1A2" offset="30%"/>
      <stop stop-color="#7D8487" offset="50%"/>
      <stop stop-color="#687074" stop-opacity="0" offset="70%"/>
      <stop stop-color="#5B6469" stop-opacity="0" offset="80%"/>
      <stop stop-color="#576065" stop-opacity="0" offset="100%"/>
    </linearGradient>
    <linearGradient x1="50.41%" y1="47.949%" x2="43.443%" y2="67.865%" id="f">
      <stop stop-color="#27343C" offset="0%"/>
      <stop stop-color="#00111E" stop-opacity="0" offset="100%"/>
    </linearGradient>
    <linearGradient x1="171.429%" y1="91.144%" x2="104.762%" y2="74.539%" id="g">
      <stop stop-color="#02131F" offset="10%"/>
      <stop stop-color="#02131F" stop-opacity="0" offset="90%"/>
    </linearGradient>
    <linearGradient x1="100.407%" y1="26.505%" x2="83.333%" y2="35.006%" id="h">
      <stop stop-color="#02131F" offset="20%"/>
      <stop stop-color="#02131F" stop-opacity="0" offset="90%"/>
    </linearGradient>
    <linearGradient x1="53.165%" y1="64.921%" x2="50.633%" y2="53.979%" id="i">
      <stop stop-color="#02131F" offset="0%"/>
      <stop stop-color="#02131F" offset="10%"/>
      <stop stop-color="#02131F" stop-opacity="0" offset="100%"/>
    </linearGradient>
    <linearGradient x1="78.723%" y1="48.512%" x2="6.383%" y2="49.95%" id="j">
      <stop stop-color="#02131F" offset="30%"/>
      <stop stop-color="#02131F" offset="30%"/>
      <stop stop-color="#02131F" stop-opacity="0" offset="80%"/>
    </linearGradient>
    <linearGradient x1="80.851%" y1="48.153%" x2="31.915%" y2="49.231%" id="k">
      <stop stop-color="#27343C" offset="40%"/>
      <stop stop-color="#3B474E" stop-opacity="0" offset="100%"/>
    </linearGradient>
    <linearGradient x1="-4.933%" y1="32.01%" x2="120.179%" y2="71.96%" id="l">
      <stop stop-color="#24303A" stop-opacity="0" offset="0%"/>
      <stop stop-color="#25323B" stop-opacity="0" offset="0%"/>
      <stop stop-color="#27343C" offset="10%"/>
    </linearGradient>
    <linearGradient x1="50%" y1="102.109%" x2="50%" y2=".874%" id="m">
      <stop stop-color="#A5ABAF" offset="30%"/>
      <stop stop-color="#A5ABAF" stop-opacity="0" offset="100%"/>
    </linearGradient>
    <linearGradient x1="50.16%" y1="0%" x2="50.16%" y2="100%" id="n">
      <stop stop-color="#DEE0DD" offset="0%"/>
      <stop stop-color="#C5C9C7" offset="0%"/>
      <stop stop-color="#9EA4A5" offset="0%"/>
      <stop stop-color="#82898C" offset="0%"/>
      <stop stop-color="#71797D" offset="0%"/>
      <stop stop-color="#6B7378" offset="0%"/>
      <stop stop-color="#333F47" offset="20%"/>
      <stop stop-color="#27343C" offset="50%"/>
      <stop stop-color="#333F47" offset="80%"/>
      <stop stop-color="#434D54" offset="100%"/>
    </linearGradient>
    <linearGradient x1="10%" y1="0%" x2="10%" y2="0%" id="o">
      <stop stop-color="#DEE0DD" offset="0%"/>
      <stop stop-color="#C5C9C7" offset="0%"/>
      <stop stop-color="#9EA4A5" offset="0%"/>
      <stop stop-color="#82898C" offset="0%"/>
      <stop stop-color="#71797D" offset="0%"/>
      <stop stop-color="#6B7378" offset="0%"/>
      <stop stop-color="#333F47" offset="20%"/>
      <stop stop-color="#27343C" offset="50%"/>
      <stop stop-color="#333F47" offset="80%"/>
      <stop stop-color="#434D54" offset="100%"/>
    </linearGradient>
    <linearGradient x1="84.499%" y1="12.225%" x2="33.345%" y2="60.636%" id="p">
      <stop stop-color="#27343C" offset="70%"/>
      <stop stop-color="#2B373F" offset="70%"/>
      <stop stop-color="#36424A" offset="70%"/>
      <stop stop-color="#49545B" offset="70%"/>
      <stop stop-color="#646D73" stop-opacity="0" offset="80%"/>
      <stop stop-color="#868D92" stop-opacity="0" offset="80%"/>
      <stop stop-color="#B0B5B8" stop-opacity="0" offset="80%"/>
      <stop stop-color="#E1E3E4" stop-opacity="0" offset="80%"/>
      <stop stop-color="#FFF" stop-opacity="0" offset="80%"/>
    </linearGradient>
  </defs>
  <g fill="none" fill-rule="evenodd">
    <g fill-rule="nonzero">
      <g fill="#FFF">
        <path d="M218.526 68.474h4.316v1.053h-4.316zM146.632 62.368l-.42 10v.21c0 .843.21 1.054 1.577 1.16v.42c-.948-.105-1.37-.105-1.895-.105-.527 0-.948 0-1.895.105v-.42c1.368-.106 1.58-.212 1.58-1.264L146 63v-.105c0-.842-.316-1.053-1.58-1.158v-.526c.738.106 1.054.106 1.58.106.737 0 1.053 0 1.79-.105l3.578 9.79 3.685-9.79c.842.106 1.263.106 1.894.106.527 0 .842 0 1.58-.105v.527c-1.264.105-1.58.316-1.58 1.158V63l.21 9.474c0 1.052.21 1.158 1.58 1.263v.42c-1.263-.104-1.684-.104-2.42-.104-.738 0-1.16 0-2.422.105v-.42c1.263-.106 1.58-.317 1.58-1.16v-.104l-.212-10L152 71l-.21.632-.316.736-.21.737-.21.632h-.317l-.21-.632-.316-.737-.21-.736-.21-.737-3.158-8.527zm17.052 11.37c-1.79 0-2.526-1.37-2.526-4.422h5.79c0-2.948-1.264-4.527-3.58-4.527-2.315 0-3.79 1.894-3.79 4.842 0 2.947 1.475 4.736 3.896 4.736 1.894 0 3.158-1.157 3.368-3.157h-.737c-.21 1.58-1.052 2.527-2.42 2.527zm-2.526-5.16c.21-2.21.947-3.367 2.21-3.367 1.264 0 1.895 1.053 2 3.37h-4.21zM168 65.422v-.315c1.053-.105 1.79-.21 2.526-.42.106.736.106 1.052.21 1.578v.21c.422-1.052 1.264-1.79 2.21-1.79.95 0 1.686.633 1.686 1.58 0 .526-.316.948-.843.948-.422 0-.843-.315-.843-.63v-.527c0-.316-.21-.42-.63-.42-1.054 0-1.685 1.262-1.685 3.156v4c0 .842.21.947 1.368 1.052v.42c-1.053-.104-1.474-.104-2.105-.104-.737 0-1.053 0-2.21.105v-.42c1.157-.106 1.368-.21 1.368-1.054v-6.422c0-.842-.106-.947-1.158-.947H168zm14.105-.84v3.157h-.42c-.317-1.684-1.053-2.526-2.21-2.526-1.475 0-2.317 1.58-2.317 4.316 0 2.737.737 4.106 2.21 4.106 1.158 0 1.895-.843 2.106-2.527h.842c-.21 2.106-1.37 3.158-3.053 3.158-2.21 0-3.79-1.895-3.79-4.737s1.58-4.842 3.79-4.842c.842 0 1.37.21 2 .842l.526-.947h.315zm5.684 9.157c-1.79 0-2.527-1.37-2.527-4.42h5.79c0-2.95-1.264-4.528-3.58-4.528-2.315 0-3.79 1.894-3.79 4.842 0 2.947 1.475 4.736 3.896 4.736 1.894 0 3.157-1.157 3.367-3.157h-.736c-.21 1.58-1.052 2.527-2.42 2.527zm-2.527-5.158c.21-2.212.948-3.37 2.21-3.37 1.264 0 1.895 1.053 2 3.37h-4.21zM200 72.157V61c-.947.21-1.79.42-2.947.526v.316c1.263 0 1.368.105 1.368 1.158v3.368c-.736-1.157-1.262-1.473-2.315-1.473-2.105 0-3.473 2-3.473 4.737 0 2.736 1.473 4.736 3.58 4.736 1.05 0 1.893-.526 2.42-1.58.105.738.105.844.315 1.58.842-.21 1.158-.315 2.21-.42h.317v-.316c-1.37-.21-1.474-.316-1.474-1.474zm-3.684 1.684c-1.37 0-2.105-1.474-2.105-4.21 0-2.843.632-4.21 2.106-4.21 1.473 0 2.21 1.473 2.21 4.315-.105 2.63-.842 4.105-2.21 4.105zm9.895-.105c-1.79 0-2.526-1.37-2.526-4.42h5.79c0-2.95-1.263-4.528-3.58-4.528-2.315 0-3.79 1.894-3.79 4.842 0 2.947 1.475 4.736 3.896 4.736 1.895 0 3.158-1.157 3.368-3.157h-.736c-.21 1.58-1.053 2.527-2.42 2.527zm-2.526-5.158c.21-2.212.948-3.37 2.21-3.37 1.264 0 1.895 1.053 2 3.37h-4.21zm7.37 5.788v-3.263h.42c.315 1.79 1.158 2.632 2.526 2.632 1.158 0 2-.737 2-1.79 0-.63-.316-1.052-1.263-1.58l-.737-.314-.947-.316c-1.37-.632-1.895-1.158-1.895-2.316 0-1.578 1.158-2.525 2.947-2.525.737 0 1.263.21 2 .63l.316-.84h.317v2.947h-.42c-.212-1.58-.843-2.316-2-2.316-1.054 0-1.79.737-1.79 1.58 0 .736.315 1.05 2 1.788l.84.316c1.475.632 2 1.263 2 2.42 0 1.58-1.262 2.738-3.156 2.738-.842 0-1.578-.21-2.315-.842l-.42.842h-.422v.21zm20.84-10c0-1.052-.42-1.894-1.157-2.42-.632-.527-1.37-.737-2.632-.737h-5.052v.527c1.368.105 1.58.21 1.58 1.263v9.368c0 1.053-.107 1.158-1.58 1.264v.42h4.842c1.473 0 2.21-.21 3.052-.63.948-.633 1.58-1.79 1.58-3.054 0-1.052-.422-2-1.16-2.526-.42-.316-.84-.526-1.578-.63 1.368-.528 2.105-1.475 2.105-2.844zm-5.683-2.526h1.685c1.58 0 2.316.842 2.316 2.632 0 .842-.21 1.58-.63 2-.422.526-.948.63-2 .63h-1.37v-5.262zm1.895 5.79c1.053 0 1.58.21 2 .63.42.422.737 1.264.737 2.212 0 1.894-.947 3.052-2.737 3.052h-.737c-1.052 0-1.157-.105-1.157-1.052v-4.842h1.895zm10.106 6.105c-1.79 0-2.526-1.37-2.526-4.42h5.79c-.106-2.95-1.263-4.528-3.58-4.528-2.315 0-3.79 1.894-3.79 4.842 0 2.947 1.475 4.736 3.896 4.736 1.895 0 3.158-1.157 3.368-3.157h-.736c-.21 1.58-1.053 2.527-2.42 2.527zm-2.526-5.158c.21-2.212.948-3.37 2.21-3.37 1.264 0 1.895 1.053 2 3.37h-4.21zm6.737-3.054v-.315c1.16-.105 1.79-.315 2.527-.63.106.42.106.946.21 1.683.738-1.052 1.475-1.474 2.632-1.474s2.21.63 2.526 1.578c.21.42.316 1.053.316 1.79v4.63c0 .844.21.95 1.368 1.054v.42c-1.053-.104-1.368-.104-2.105-.104-.737 0-1.053 0-2.106.105v-.42c1.052 0 1.263-.21 1.263-1.054v-4.737c0-1.685-.527-2.316-1.79-2.316s-2 .842-2 2.42v4.632c0 .736.21.947 1.263 1.052v.42c-1.052-.104-1.368-.104-2.105-.104-.63 0-1.052 0-2.104.105v-.42c1.158-.106 1.368-.21 1.368-1.054v-6.316c0-.842-.105-.948-1.052-.948h-.21zm10.317 8.632L258 65.526h-2.42c-1.264 0-1.58.316-2.212 2h-.42l.42-2.526H260l-5.263 8.632h2.21c1.264 0 1.895-.527 2.42-2.316h.422l-.527 2.737h-6.526v.105z"/>
      </g>
      <path d="M63.3 32c0 17.3-14 31.3-31.3 31.3S.7 49.3.7 32 14.7.7 32 .7s31.3 14 31.3 31.3zM32 2.6C15.7 2.6 2.6 15.7 2.6 32c0 16.3 13.2 29.4 29.4 29.4 16.3 0 29.4-13.2 29.4-29.4C61.4 15.7 48.3 2.6 32 2.6z" fill="url(#b)" transform="translate(16 16)"/>
      <path d="M32 2.6C15.7 2.6 2.6 15.7 2.6 32c0 16.3 13.2 29.4 29.4 29.4 16.3 0 29.4-13.2 29.4-29.4C61.4 15.7 48.3 2.6 32 2.6zm0 56.9C16.8 59.5 4.5 47.2 4.5 32S16.8 4.5 32 4.5 59.5 16.8 59.5 32 47.2 59.5 32 59.5z" fill="url(#c)" transform="translate(16 16)"/>
      <path d="M32 63.3c17.3 0 31.3-14 31.3-31.3S49.3.7 32 .7.7 14.7.7 32s14 31.3 31.3 31.3zM32 0c17.6 0 32 14.4 32 32S49.6 64 32 64 0 49.6 0 32 14.4 0 32 0z" fill="url(#d)" opacity=".4" transform="translate(16 16)"/>
      <path d="M18.2 48.1c0-16.4 13.3-29.9 29.8-29.9s29.8 13.4 29.8 29.9c0 16.4-13.3 29.7-29.8 29.7S18.2 64.5 18.2 48.1zm9.3-20.6c-5.3 5.3-8.6 12.6-8.6 20.6 0 8 3.3 15.3 8.5 20.5 5.3 5.2 12.6 8.5 20.6 8.5 8 0 15.3-3.2 20.5-8.5 5.3-5.2 8.5-12.5 8.5-20.5s-3.3-15.3-8.5-20.6C63.3 22.2 56 18.9 48 18.9s-15.3 3.3-20.5 8.6z" fill="#FFF"/>
      <path d="M32 59.6c-7.4 0-14.3-2.9-19.5-8.1C7.3 46.3 4.4 39.4 4.4 32s2.9-14.3 8.1-19.5C17.7 7.3 24.6 4.4 32 4.4s14.3 2.9 19.5 8.1c5.2 5.2 8.1 12.1 8.1 19.5s-2.9 14.3-8.1 19.5c-5.2 5.2-12.1 8.1-19.5 8.1zm0-.8c7.1 0 13.9-2.8 18.9-7.8 5.1-5.1 7.8-11.8 7.8-18.9 0-7.1-2.8-13.9-7.8-18.9C45.8 8.1 39.1 5.4 32 5.4c-7.1 0-13.9 2.8-18.9 7.8C8 18.1 5.2 24.9 5.2 32c0 7.1 2.8 13.9 7.8 18.9 5.1 5.1 11.9 7.9 19 7.9z" fill="url(#e)" opacity=".4" transform="translate(16 16)"/>
      <path d="M72.3 61c-.5-.4-19.8-15.7-19.8-15.7L48 19.6c-.3.1-.7.4-.9.8l-3.2 25L24 60.7s-.4.5-.6.8c-.1.2-.1.5-.1.8l24.6-10.1 24.6 10.1c.2-.5 0-1-.2-1.3z" fill="#FFF"/>
      <path d="M48.2 48.8l-.2 4.6 22.6 9.1c.8.4 1.4.2 2-.2L48.5 48.7c-.1-.1-.3 0-.3.1z" fill="#565F64"/>
      <path d="M32.2 32.8s1.3 2.3 2.8 3.9c2.1 2.3 4.9 3.9 4.9 3.9l14.7 5.9c.8.4 1.4.2 2-.2L32.5 32.7c-.1-.1-.3 0-.3.1z" fill="url(#f)" transform="translate(16 16)"/>
      <path d="M72.5 61.4c0-.1-.1-.2-.2-.4L51.7 45.9l-2.8 1.8s.2.1.3 0c.3-.1.9-.2 1.5 0 .5.2 21.8 13.8 21.8 13.8v-.1z" fill-opacity=".6" fill="#A4AAAE"/>
      <path d="M71.8 60.5L52.6 45.3l-.9.6 20.6 15.2c-.1-.2-.3-.4-.5-.6z" fill="#333E46"/>
      <path d="M48.5 47.3l-.1.1s0 .2.2.1c.1-.1 3-1.6 4-2.2l-3.5-24c-.1-.9-.5-1.3-1.2-1.6l.4 27.8.2-.2z" fill="#565F64"/>
      <path d="M46.8 21.3v1.3l-2.2 22.1c0 .3.1.6.4.8l1.3 1 .9-24.4.1-1.9c-.3.2-.4.6-.5 1.1zM45.6 46.9l-1.2-1-20.3 14.7s-.6.4-.7.8l.7-.4 21.3-13.4c.4-.2.5-.4.2-.7z" fill-opacity=".6" fill="#A4AAAE"/>
      <path d="M47.7 48.8c0-.1-.1-.2-.2-.1L23.3 62.4c.6.4 1.2.5 2 .2l22.6-9.1-.2-4.7z" fill="#565F64"/>
      <path d="M32.4 31.4l.1-.1-.1.1s0 .1.1.1h.1c.1-.1 3-1.6 4-2.2l-.4-2.9-3.1-21.1c0-.4-.1-.7-.3-.9 0 0 1.5 20.2 1.5 22.4 0 2.9-1.9 4.6-1.9 4.6z" fill="url(#g)" transform="translate(16 16)"/>
      <path d="M31.7 32.8c0-.1-.1-.2-.2-.1L7.3 46.4c.6.4 1.2.5 2 .2l22.6-9.1-.2-4.7z" fill-opacity=".8" fill="url(#h)" transform="translate(16 16)"/>
      <path d="M9.3 46.5l22.6-9.1-.2-4.4c-.4 1.2-1.1 2.5-3 3.5-1.4.8-14.8 7.4-19.6 9.7-.3.2-.7.3-.9.4.4.2.7.1 1.1-.1z" fill="url(#i)" opacity=".8" transform="translate(16 16)"/>
      <path d="M32.5 31.3l-.1.1s0 .2.2.1c.1-.1 3-1.6 4-2.2l-3.5-24c-.1-.9-.5-1.3-1.2-1.6l.4 27.8.2-.2z" fill="url(#j)" transform="translate(16 16)"/>
      <path d="M32.5 31.3l-.1.1s0 .2.2.1c.1-.1 3-1.6 4-2.2l-3.5-24c-.1-.9-.5-1.3-1.2-1.6l.4 27.8.2-.2z" fill="url(#k)" transform="translate(16 16)"/>
      <path d="M5.1 44.4C4.4 42.8.4 35 4.8 20H3.1c-.9 3-1.6 4.8-2 7.5 0 0-.2 1-.3 2.1C.7 30.7.7 31.3.7 32c0 6 1.5 9.5 1.5 9.5 1.6 5 4.4 9.5 8.2 12.9 3.3 2.9 8.4 5.1 12.6 5.9-.7-.1-12.7-5.2-17.9-15.9z" fill="url(#l)" transform="translate(16 16)"/>
      <path d="M32.4 32.6h-.9c.1 0 .2 0 .2.1l.2 4.6h.1l.2-4.6c0-.1.1-.2.2-.1z" fill="url(#m)" transform="translate(16 16)"/>
      <path d="M42 2.3c10.5 4 20.4 15 20.4 28.9C62.4 48 49 61.7 32 61.7v1.6c17 0 31.3-14 31.3-31.3 0-13.8-8.8-25.4-21.3-29.7z" fill="url(#n)" transform="translate(16 16)"/>
      <path d="M32.3.7H32h.3z" fill="url(#o)" transform="translate(16 16)"/>
      <path d="M58.8 20.2C51.8 4.1 36 3.2 35.1 3.1H35c12.1 2.2 19.8 10.1 22.5 18.4v.1c1.2 3.2 1.8 6.6 1.9 10.3.1 3.5-.7 7.4-2.2 11-.1.5-.2 1.1-.3 1.1h1.6c4.8-9 2.7-18.1.3-23.8z" fill="url(#p)" transform="translate(16 16)"/>
      <path d="M18.2 48.1c0-16.4 13.3-29.9 29.8-29.9s29.8 13.4 29.8 29.9c0 16.4-13.3 29.7-29.8 29.7S18.2 64.5 18.2 48.1zm9.3-20.6c-5.3 5.3-8.6 12.6-8.6 20.6 0 8 3.3 15.3 8.5 20.5 5.3 5.2 12.6 8.5 20.6 8.5 8 0 15.3-3.2 20.5-8.5 5.3-5.2 8.5-12.5 8.5-20.5s-3.3-15.3-8.5-20.6C63.3 22.2 56 18.9 48 18.9s-15.3 3.3-20.5 8.6z" fill="#FBFBFB"/>
      <path d="M23.9 60.8l20.4-14.7c1.1.6 2.9 1.4 3.1 1.4.2.1.2-.1.2-.1l-2.5-2.1c-.3-.2-.4-.5-.4-.8l2.4-24.1c-.1.1-.1.3-.2.4-.1.2-.1.3-.1.5l-3.5 24.1-19.2 15.1c-.1.1-.2.2-.2.3z" fill="#333F47"/>
    </g>
    <path fill="#666" d="M273 61h1v14h-1z"/>
  </g>
</svg>